<svg width="66" height="66" viewBox="0 0 66 66" fill="none" xmlns="http://www.w3.org/2000/svg">
<path d="M11.0004 27.5L9.05585 29.4445L7.11133 27.5L9.05585 25.5554L11.0004 27.5ZM57.7504 49.5C57.7504 51.0188 56.5192 52.25 55.0004 52.25C53.4816 52.25 52.2504 51.0188 52.2504 49.5H57.7504ZM22.8059 43.1945L9.05585 29.4445L12.945 25.5554L26.695 39.3054L22.8059 43.1945ZM9.05585 25.5554L22.8059 11.8054L26.695 15.6945L12.945 29.4445L9.05585 25.5554ZM11.0004 24.75H38.5004V30.25H11.0004V24.75ZM57.7504 44V49.5H52.2504V44H57.7504ZM38.5004 24.75C49.1319 24.75 57.7504 33.3685 57.7504 44H52.2504C52.2504 36.4061 46.0943 30.25 38.5004 30.25V24.75Z" fill="#363636"/>
</svg>
