<?xml version="1.0" encoding="iso-8859-1"?>
<!-- Uploaded to: SVG Repo, www.svgrepo.com, Generator: SVG Repo Mixer Tools -->
<!DOCTYPE svg PUBLIC "-//W3C//DTD SVG 1.1//EN" "http://www.w3.org/Graphics/SVG/1.1/DTD/svg11.dtd">
<svg fill="#000000" version="1.1" id="Capa_1" xmlns="http://www.w3.org/2000/svg" xmlns:xlink="http://www.w3.org/1999/xlink" 
	 width="800px" height="800px" viewBox="0 0 20.625 20.625"
	 xml:space="preserve">
<g>
	<g>
		<path d="M16.18,6.147l-1.744,13.606H6.19L4.446,6.147H16.18 M16.18,5.275H4.446c-0.251,0-0.489,0.108-0.655,0.296
			s-0.242,0.438-0.21,0.687l1.744,13.606c0.056,0.435,0.426,0.761,0.865,0.761h8.246c0.438,0,0.809-0.326,0.865-0.761l1.743-13.606
			c0.031-0.249-0.046-0.499-0.211-0.687C16.669,5.383,16.43,5.275,16.18,5.275L16.18,5.275z"/>
		<g>
			<path d="M16.089,1.645h-0.395c-0.2-0.009-0.804-0.105-1.075-0.938h-0.001C14.542,0.305,14.189,0,13.764,0H6.716
				C6.291,0,5.938,0.305,5.861,0.707H5.86C5.589,1.54,4.986,1.637,4.785,1.645H4.537c-0.482,0-0.872,0.39-0.872,0.872V3.87
				c0,0.482,0.39,0.872,0.872,0.872h11.553c0.481,0,0.872-0.39,0.872-0.872V2.517C16.961,2.036,16.57,1.645,16.089,1.645z
				 M11.294,1.754H9.332c-0.231,0-0.418-0.187-0.418-0.418s0.187-0.418,0.418-0.418h1.962c0.231,0,0.418,0.187,0.418,0.418
				C11.711,1.567,11.524,1.754,11.294,1.754z"/>
		</g>
		<g>
			<path d="M11.487,10.42c-0.99-0.554-2.319-0.064-2.967,1.096c-0.648,1.158-0.371,2.547,0.619,3.102
				c0.99,0.554,2.319,0.064,2.967-1.096C12.754,12.363,12.477,10.974,11.487,10.42z M10.564,12.941
				c-0.237,1.664-1.457,1.138-1.457,1.138s0.671-0.074,0.771-1.147c0.066-2.553,1.754-1.91,1.754-1.91
				C10.763,11.3,10.754,11.607,10.564,12.941z"/>
			<path d="M10.312,8.586c-2.168,0-3.933,1.765-3.933,3.934c0,2.168,1.764,3.933,3.933,3.933c2.169,0,3.933-1.765,3.933-3.933
				C14.246,10.351,12.481,8.586,10.312,8.586z M13.409,12.52c0,1.707-1.389,3.096-3.096,3.096c-1.707,0-3.096-1.389-3.096-3.096
				c0-1.708,1.389-3.098,3.096-3.098C12.02,9.422,13.409,10.811,13.409,12.52z"/>
		</g>
	</g>
</g>
</svg>