<svg width="228" height="228" viewBox="0 0 228 228" fill="none" xmlns="http://www.w3.org/2000/svg">
<path d="M0 53.4375C0 23.9248 23.9248 0 53.4375 0H174.562C204.075 0 228 23.9248 228 53.4375V174.562C228 204.075 204.075 228 174.562 228H53.4375C23.9248 228 0 204.075 0 174.562V53.4375Z" fill="#EF4F5F"/>
<path d="M38.2458 109.324C39.1753 109.324 40.0396 109.536 40.855 109.928C41.6704 110.319 42.2412 110.694 42.5837 111.069L43.0892 111.673V102.654H47.5902V126.04H43.0892V124.034C43.0403 124.099 42.9751 124.181 42.8772 124.278C42.7794 124.376 42.5837 124.572 42.2901 124.833C41.9966 125.094 41.6704 125.339 41.328 125.551C40.9692 125.763 40.5289 125.942 39.9744 126.105C39.4199 126.268 38.8329 126.35 38.2458 126.35C36.1258 126.35 34.283 125.534 32.7174 123.887C31.1519 122.24 30.3854 120.218 30.3854 117.837C30.3854 115.456 31.1519 113.45 32.7174 111.803C34.283 110.156 36.1258 109.324 38.2458 109.324ZM39.0612 122.37C40.1701 122.37 41.116 121.946 41.8987 121.098C42.6815 120.25 43.0729 119.158 43.0729 117.853C43.0729 116.532 42.6815 115.456 41.8987 114.608C41.116 113.76 40.1701 113.336 39.0612 113.336C37.9522 113.336 37.0064 113.76 36.2236 114.608C35.4408 115.456 35.0494 116.532 35.0494 117.853C35.0494 119.158 35.4408 120.25 36.2236 121.098C37.0064 121.946 37.9522 122.37 39.0612 122.37Z" fill="white"/>
<path d="M56.1107 117.853C56.1107 119.076 56.5021 120.104 57.3012 120.935C58.0839 121.767 59.0298 122.175 60.1224 122.175C61.1987 122.175 62.1446 121.767 62.9437 120.935C63.7264 120.104 64.1341 119.076 64.1341 117.853C64.1341 116.63 63.7264 115.603 62.9437 114.755C62.1446 113.923 61.1987 113.499 60.1224 113.499C59.0298 113.499 58.0839 113.923 57.3012 114.755C56.5021 115.603 56.1107 116.63 56.1107 117.853ZM68.7982 117.837C68.7982 120.12 67.9339 122.11 66.2052 123.806C64.4766 125.502 62.4544 126.35 60.1224 126.35C57.7741 126.35 55.7519 125.502 54.0233 123.806C52.2946 122.11 51.4303 120.12 51.4303 117.837C51.4303 115.57 52.2946 113.581 54.0233 111.885C55.7519 110.189 57.7741 109.341 60.1224 109.341C62.4544 109.341 64.4766 110.189 66.2052 111.885C67.9339 113.581 68.7982 115.57 68.7982 117.837Z" fill="white"/>
<path d="M76.1445 117.853C76.1445 119.076 76.5359 120.104 77.335 120.935C78.1178 121.767 79.0636 122.175 80.1562 122.175C81.2326 122.175 82.1784 121.767 82.9775 120.935C83.7603 120.104 84.168 119.076 84.168 117.853C84.168 116.63 83.7603 115.603 82.9775 114.755C82.1784 113.923 81.2326 113.499 80.1562 113.499C79.0636 113.499 78.1178 113.923 77.335 114.755C76.5359 115.603 76.1445 116.63 76.1445 117.853ZM88.832 117.837C88.832 120.12 87.9677 122.11 86.2391 123.806C84.5104 125.502 82.4883 126.35 80.1562 126.35C77.8079 126.35 75.7858 125.502 74.0571 123.806C72.3285 122.11 71.4642 120.12 71.4642 117.837C71.4642 115.57 72.3285 113.581 74.0571 111.885C75.7858 110.189 77.8079 109.341 80.1562 109.341C82.4883 109.341 84.5104 110.189 86.2391 111.885C87.9677 113.581 88.832 115.57 88.832 117.837Z" fill="white"/>
<path d="M102.359 109.487L102.343 114.021C102.017 113.907 101.511 113.841 100.842 113.825C99.6682 113.825 98.7224 114.2 98.0375 114.95C97.3525 115.701 96.9938 116.777 96.9938 118.179V126.023H92.4928V109.65H96.9938V111.656C97.1242 111.509 97.3199 111.314 97.5482 111.069C97.7928 110.825 98.3147 110.498 99.1301 110.091C99.9455 109.699 100.793 109.487 101.69 109.487H102.359Z" fill="white"/>
<path d="M111.874 119.68L109.885 122.012V126.023H105.368V102.638H109.885V116.337L115.723 109.65H120.893L114.728 116.679L121.235 126.023H116.229L111.874 119.68Z" fill="white"/>
<path d="M128.239 109.65L128.223 111.673C128.353 111.493 128.549 111.281 128.777 111.02C129.022 110.759 129.544 110.417 130.359 109.977C131.174 109.553 132.022 109.324 132.903 109.324C134.778 109.324 136.311 109.977 137.485 111.265C138.66 112.569 139.247 114.314 139.247 116.5V126.023H134.746V117.005C134.746 116.01 134.452 115.211 133.865 114.592C133.278 113.972 132.512 113.662 131.582 113.662C130.555 113.662 129.739 114.005 129.136 114.673C128.532 115.342 128.239 116.288 128.239 117.511V126.023H123.738V109.65H128.239Z" fill="white"/>
<path d="M147.604 117.853C147.604 119.076 147.996 120.104 148.795 120.935C149.577 121.767 150.523 122.175 151.616 122.175C152.692 122.175 153.638 121.767 154.437 120.935C155.22 120.104 155.628 119.076 155.628 117.853C155.628 116.63 155.22 115.603 154.437 114.755C153.638 113.923 152.692 113.499 151.616 113.499C150.523 113.499 149.577 113.923 148.795 114.755C147.996 115.603 147.604 116.63 147.604 117.853ZM160.292 117.837C160.292 120.12 159.427 122.11 157.699 123.806C155.97 125.502 153.948 126.35 151.616 126.35C149.268 126.35 147.245 125.502 145.517 123.806C143.788 122.11 142.924 120.12 142.924 117.837C142.924 115.57 143.788 113.581 145.517 111.885C147.245 110.189 149.268 109.341 151.616 109.341C153.948 109.341 155.97 110.189 157.699 111.885C159.427 113.581 160.292 115.57 160.292 117.837Z" fill="white"/>
<path d="M162.958 117.837C162.958 115.57 163.822 113.581 165.567 111.885C167.328 110.189 169.399 109.324 171.796 109.324C172.644 109.324 173.46 109.455 174.226 109.683C174.993 109.911 175.613 110.189 176.102 110.515C176.591 110.841 177.031 111.151 177.406 111.477C177.798 111.803 178.075 112.097 178.238 112.325L178.483 112.667L175.645 115.505C175.564 115.358 175.417 115.162 175.221 114.902C175.025 114.657 174.585 114.331 173.916 113.939C173.248 113.548 172.547 113.336 171.796 113.336C170.622 113.336 169.595 113.776 168.747 114.657C167.899 115.537 167.459 116.614 167.459 117.853C167.459 119.093 167.899 120.153 168.747 121.033C169.611 121.914 170.622 122.354 171.796 122.354C172.547 122.354 173.248 122.175 173.916 121.816C174.585 121.457 175.074 121.098 175.368 120.74L175.808 120.185L178.483 123.023C178.417 123.121 178.336 123.235 178.222 123.398C178.108 123.561 177.847 123.822 177.423 124.197C177.015 124.572 176.575 124.898 176.085 125.192C175.613 125.485 174.993 125.746 174.226 125.991C173.46 126.235 172.644 126.35 171.796 126.35C169.399 126.35 167.328 125.502 165.583 123.806C163.822 122.11 162.958 120.12 162.958 117.837Z" fill="white"/>
<path d="M188.52 119.68L186.53 122.012V126.023H182.013V102.638H186.53V116.337L192.368 109.65H197.538L191.374 116.679L197.881 126.023H192.874L188.52 119.68Z" fill="white"/>
</svg>
